<svg id="Layer_1" data-name="Layer 1" xmlns="http://www.w3.org/2000/svg" width="87" height="60" viewBox="0 0 87 60">
  <title>logo_1</title>
  <rect x="1" y="1" width="85" height="58" rx="0.48" ry="0.48" fill="#fff" stroke="#333" stroke-miterlimit="10" stroke-width="2"/>
  <rect x="7.5" y="7" width="72" height="46" rx="0.48" ry="0.48" fill="#333" stroke="#fff" stroke-miterlimit="10"/>
  <g>
    <path d="M11.41,41.13a0.72,0.72,0,0,1,.72-0.72h3.66a3.49,3.49,0,0,0,2.58-.72,2.91,2.91,0,0,0,.66-2V10.71A0.72,0.72,0,0,1,19.75,10H31.51a0.72,0.72,0,0,1,.72.72V39.87q0,5.58-2.55,7.86T21.55,50H12.13a0.72,0.72,0,0,1-.72-0.72V41.13Zm9.66,4.08q2.94,0,4.14-1.29a5.5,5.5,0,0,0,1.2-3.87V15.51a0.72,0.72,0,0,0-.72-0.72H25.51a0.72,0.72,0,0,0-.72.72V40.05a4.83,4.83,0,0,1-.66,2.79q-0.66.93-3.06,0.93H16.93a0.72,0.72,0,0,0-.72.72h0a0.72,0.72,0,0,0,.72.72h4.14Z" fill="#fff"/>
    <path d="M34.43,10H43.8a0.78,0.78,0,0,1,.65.34L54,24.4a0.78,0.78,0,0,0,1.29,0l9.5-14.06A0.78,0.78,0,0,1,65.45,10h9.37a0.78,0.78,0,0,1,.78.78V49.23a0.78,0.78,0,0,1-.78.78H63.59a0.78,0.78,0,0,1-.78-0.78V38.14a0.78,0.78,0,0,0-1.43-.44l-6.09,9a0.78,0.78,0,0,1-1.29,0l-6.15-9a0.78,0.78,0,0,0-1.42.44v11.1a0.78,0.78,0,0,1-.78.78H34.43a0.78,0.78,0,0,1-.78-0.78V10.77A0.78,0.78,0,0,1,34.43,10Zm6.78,34.44V20.18a0.78,0.78,0,0,1,1.42-.44L54,36.29a0.78,0.78,0,0,0,1.29,0L66.61,19.75a0.78,0.78,0,0,1,1.42.44V44.43a0.78,0.78,0,0,0,.78.78h0a0.78,0.78,0,0,0,.78-0.78V15.57a0.78,0.78,0,0,0-.78-0.78H68.44a0.78,0.78,0,0,0-.65.34L55.3,33.58a0.78,0.78,0,0,1-1.29,0L41.44,15.13a0.78,0.78,0,0,0-.64-0.34H40.43a0.78,0.78,0,0,0-.78.78V44.43a0.78,0.78,0,0,0,.78.78h0A0.78,0.78,0,0,0,41.21,44.43Z" fill="#fff"/>
  </g>
</svg>
